<svg width="216" height="30" viewBox="0 0 216 30" fill="none" xmlns="http://www.w3.org/2000/svg">
<g clip-path="url(#clip0_938_1186)">
<g filter="url(#filter0_d_938_1186)">
<path d="M188.5 15C188.5 12.5277 189.233 10.111 190.607 8.05538C191.98 5.99976 193.932 4.39761 196.216 3.45151C198.501 2.50542 201.014 2.25787 203.439 2.74019C205.863 3.2225 208.091 4.41301 209.839 6.16117C211.587 7.90933 212.778 10.1366 213.26 12.5614C213.742 14.9861 213.495 17.4995 212.548 19.7835C211.602 22.0676 210 24.0199 207.945 25.3934C205.889 26.7669 203.472 27.5 201 27.5C199.358 27.5 197.733 27.1767 196.216 26.5485C194.7 25.9203 193.322 24.9996 192.161 23.8388C191 22.6781 190.08 21.3001 189.452 19.7835C188.823 18.267 188.5 16.6415 188.5 15V15ZM203.325 19.6125L206.9 15.8625C206.953 15.8083 206.995 15.7447 207.025 15.675C207.078 15.6162 207.12 15.5485 207.15 15.475C207.216 15.3254 207.25 15.1636 207.25 15C207.25 14.8364 207.216 14.6746 207.15 14.525C207.091 14.3716 207.001 14.2314 206.887 14.1125L203.137 10.3625C202.902 10.1271 202.583 9.99489 202.25 9.99489C201.917 9.99489 201.598 10.1271 201.362 10.3625C201.127 10.5979 200.995 10.9171 200.995 11.25C200.995 11.5829 201.127 11.9021 201.362 12.1375L202.987 13.75L196 13.75C195.668 13.75 195.351 13.8817 195.116 14.1161C194.882 14.3505 194.75 14.6685 194.75 15C194.75 15.3315 194.882 15.6495 195.116 15.8839C195.351 16.1183 195.668 16.25 196 16.25L203.075 16.25L201.512 17.8875C201.284 18.1279 201.16 18.4492 201.168 18.7809C201.176 19.1126 201.316 19.4275 201.556 19.6563C201.797 19.885 202.118 20.0089 202.45 20.0007C202.781 19.9925 203.096 19.8529 203.325 19.6125V19.6125Z" fill="#364969"/>
</g>
</g>
<path d="M1.728 22C1.44 22 1.23 21.94 1.098 21.82C0.978 21.688 0.918 21.49 0.918 21.226V10.552C0.918 10.288 0.978 10.09 1.098 9.958C1.23 9.826 1.44 9.76 1.728 9.76H6.228C9.312 9.76 10.854 11.14 10.854 13.9C10.854 16.648 9.312 18.022 6.228 18.022H3.888V21.226C3.888 21.49 3.828 21.688 3.708 21.82C3.588 21.94 3.378 22 3.078 22H1.728ZM6.03 15.844C7.278 15.844 7.902 15.196 7.902 13.9C7.902 12.604 7.278 11.956 6.03 11.956H3.906V15.844H6.03ZM12.7846 22C12.4966 22 12.2866 21.94 12.1546 21.82C12.0346 21.688 11.9746 21.49 11.9746 21.226V10.552C11.9746 10.288 12.0346 10.09 12.1546 9.958C12.2866 9.826 12.4966 9.76 12.7846 9.76H16.5646C18.6166 9.76 20.1766 10.252 21.2446 11.236C22.3126 12.22 22.8466 13.768 22.8466 15.88C22.8466 17.968 22.3066 19.51 21.2266 20.506C20.1466 21.502 18.5926 22 16.5646 22H12.7846ZM16.7086 19.822C17.7766 19.822 18.5746 19.528 19.1026 18.94C19.6306 18.34 19.8946 17.32 19.8946 15.88C19.8946 14.44 19.6306 13.426 19.1026 12.838C18.5746 12.25 17.7766 11.956 16.7086 11.956H14.9446V19.822H16.7086ZM25.1245 22C24.8365 22 24.6265 21.94 24.4945 21.82C24.3745 21.688 24.3145 21.49 24.3145 21.226V10.552C24.3145 10.288 24.3745 10.09 24.4945 9.958C24.6265 9.826 24.8365 9.76 25.1245 9.76H29.6245C32.7085 9.76 34.2505 11.14 34.2505 13.9C34.2505 16.648 32.7085 18.022 29.6245 18.022H27.2845V21.226C27.2845 21.49 27.2245 21.688 27.1045 21.82C26.9845 21.94 26.7745 22 26.4745 22H25.1245ZM29.4265 15.844C30.6745 15.844 31.2985 15.196 31.2985 13.9C31.2985 12.604 30.6745 11.956 29.4265 11.956H27.3025V15.844H29.4265ZM33.5602 22C33.3442 22 33.2362 21.898 33.2362 21.694C33.2362 21.61 33.2542 21.514 33.2902 21.406L37.9522 10.3C38.0362 10.096 38.1262 9.958 38.2222 9.886C38.3302 9.802 38.4802 9.76 38.6722 9.76H39.9862C40.1782 9.76 40.3222 9.802 40.4182 9.886C40.5142 9.958 40.6042 10.096 40.6882 10.3L45.3502 21.406C45.3862 21.514 45.4042 21.61 45.4042 21.694C45.4042 21.898 45.2962 22 45.0802 22H42.9022C42.7342 22 42.6082 21.976 42.5242 21.928C42.4522 21.868 42.3862 21.766 42.3262 21.622L41.4982 19.498H37.1242L36.3142 21.622C36.2542 21.766 36.1822 21.868 36.0982 21.928C36.0262 21.976 35.9062 22 35.7382 22H33.5602ZM40.8142 17.428L39.3202 13.54L37.8082 17.428H40.8142ZM59.5987 22.27C57.5107 22.27 55.8907 21.724 54.7387 20.632C53.5987 19.528 53.0287 17.944 53.0287 15.88C53.0287 13.804 53.5867 12.22 54.7027 11.128C55.8307 10.036 57.4387 9.49 59.5267 9.49C60.4027 9.49 61.1947 9.58 61.9027 9.76C62.6227 9.928 63.2287 10.174 63.7207 10.498C63.8407 10.582 63.9007 10.678 63.9007 10.786C63.9007 10.882 63.8647 10.984 63.7927 11.092L63.1627 12.19C63.0787 12.322 62.9947 12.388 62.9107 12.388C62.8387 12.388 62.7367 12.352 62.6047 12.28C61.8367 11.848 60.9307 11.632 59.8867 11.632C58.6507 11.632 57.6907 11.992 57.0067 12.712C56.3227 13.42 55.9807 14.476 55.9807 15.88C55.9807 17.296 56.3347 18.358 57.0427 19.066C57.7627 19.774 58.7407 20.128 59.9767 20.128C61.1047 20.128 62.0527 19.912 62.8207 19.48C62.9527 19.408 63.0547 19.372 63.1267 19.372C63.2107 19.372 63.2947 19.438 63.3787 19.57L64.0807 20.776C64.1287 20.86 64.1527 20.932 64.1527 20.992C64.1527 21.064 64.0807 21.154 63.9367 21.262C63.0007 21.934 61.5547 22.27 59.5987 22.27ZM70.7013 22.27C68.6613 22.27 67.1013 21.712 66.0213 20.596C64.9533 19.48 64.4193 17.908 64.4193 15.88C64.4193 13.852 64.9533 12.28 66.0213 11.164C67.1013 10.048 68.6613 9.49 70.7013 9.49C72.7293 9.49 74.2773 10.048 75.3453 11.164C76.4253 12.28 76.9653 13.852 76.9653 15.88C76.9653 17.908 76.4253 19.48 75.3453 20.596C74.2773 21.712 72.7293 22.27 70.7013 22.27ZM70.7013 20.128C71.7933 20.128 72.6153 19.774 73.1673 19.066C73.7313 18.346 74.0133 17.284 74.0133 15.88C74.0133 14.476 73.7313 13.42 73.1673 12.712C72.6153 11.992 71.7933 11.632 70.7013 11.632C69.5973 11.632 68.7633 11.992 68.1993 12.712C67.6473 13.42 67.3713 14.476 67.3713 15.88C67.3713 17.284 67.6473 18.346 68.1993 19.066C68.7633 19.774 69.5973 20.128 70.7013 20.128ZM78.6147 22C78.3267 22 78.1167 21.94 77.9847 21.82C77.8647 21.688 77.8047 21.49 77.8047 21.226V10.534C77.8047 10.27 77.8647 10.078 77.9847 9.958C78.1167 9.826 78.3327 9.76 78.6327 9.76H79.9647C80.1807 9.76 80.3487 9.79 80.4687 9.85C80.5887 9.898 80.6847 10 80.7567 10.156L83.8707 17.5L87.0027 10.156C87.0747 10 87.1707 9.898 87.2907 9.85C87.4107 9.79 87.5787 9.76 87.7947 9.76H89.1267C89.4267 9.76 89.6367 9.826 89.7567 9.958C89.8887 10.078 89.9547 10.27 89.9547 10.534V21.226C89.9547 21.49 89.8887 21.688 89.7567 21.82C89.6367 21.94 89.4327 22 89.1447 22H88.0467C87.7467 22 87.5307 21.94 87.3987 21.82C87.2787 21.688 87.2187 21.49 87.2187 21.226V14.422L84.8067 19.804C84.6867 20.056 84.5667 20.236 84.4467 20.344C84.3387 20.44 84.1467 20.488 83.8707 20.488C83.6067 20.488 83.4087 20.44 83.2767 20.344C83.1567 20.236 83.0427 20.056 82.9347 19.804L80.5407 14.422V21.226C80.5407 21.49 80.4747 21.688 80.3427 21.82C80.2227 21.94 80.0127 22 79.7127 22H78.6147ZM92.6069 22C92.3189 22 92.1089 21.94 91.9769 21.82C91.8569 21.688 91.7969 21.49 91.7969 21.226V10.552C91.7969 10.288 91.8569 10.09 91.9769 9.958C92.1089 9.826 92.3189 9.76 92.6069 9.76H97.1069C100.191 9.76 101.733 11.14 101.733 13.9C101.733 16.648 100.191 18.022 97.1069 18.022H94.7669V21.226C94.7669 21.49 94.7069 21.688 94.5869 21.82C94.4669 21.94 94.2569 22 93.9569 22H92.6069ZM96.9089 15.844C98.1569 15.844 98.7809 15.196 98.7809 13.9C98.7809 12.604 98.1569 11.956 96.9089 11.956H94.7849V15.844H96.9089ZM103.664 22C103.376 22 103.166 21.94 103.034 21.82C102.914 21.688 102.854 21.49 102.854 21.226V10.552C102.854 10.288 102.914 10.09 103.034 9.958C103.166 9.826 103.376 9.76 103.664 9.76H105.014C105.314 9.76 105.524 9.826 105.644 9.958C105.764 10.078 105.824 10.276 105.824 10.552V19.822H110.9C111.188 19.822 111.386 19.882 111.494 20.002C111.602 20.122 111.656 20.32 111.656 20.596V21.244C111.656 21.52 111.602 21.718 111.494 21.838C111.386 21.946 111.188 22 110.9 22H103.664ZM113.578 22C113.29 22 113.08 21.94 112.948 21.82C112.828 21.688 112.768 21.49 112.768 21.226V10.552C112.768 10.288 112.828 10.09 112.948 9.958C113.08 9.826 113.29 9.76 113.578 9.76H114.928C115.228 9.76 115.438 9.826 115.558 9.958C115.678 10.078 115.738 10.276 115.738 10.552V21.226C115.738 21.49 115.678 21.688 115.558 21.82C115.438 21.94 115.228 22 114.928 22H113.578ZM117.548 22C117.332 22 117.224 21.898 117.224 21.694C117.224 21.61 117.242 21.514 117.278 21.406L121.94 10.3C122.024 10.096 122.114 9.958 122.21 9.886C122.318 9.802 122.468 9.76 122.66 9.76H123.974C124.166 9.76 124.31 9.802 124.406 9.886C124.502 9.958 124.592 10.096 124.676 10.3L129.338 21.406C129.374 21.514 129.392 21.61 129.392 21.694C129.392 21.898 129.284 22 129.068 22H126.89C126.722 22 126.596 21.976 126.512 21.928C126.44 21.868 126.374 21.766 126.314 21.622L125.486 19.498H121.112L120.302 21.622C120.242 21.766 120.17 21.868 120.086 21.928C120.014 21.976 119.894 22 119.726 22H117.548ZM124.802 17.428L123.308 13.54L121.796 17.428H124.802ZM131.701 22C131.413 22 131.203 21.94 131.071 21.82C130.951 21.688 130.891 21.49 130.891 21.226V10.534C130.891 10.27 130.951 10.078 131.071 9.958C131.203 9.826 131.419 9.76 131.719 9.76H132.835C133.039 9.76 133.189 9.79 133.285 9.85C133.393 9.898 133.507 10 133.627 10.156L138.667 17.266V10.552C138.667 10.288 138.727 10.09 138.847 9.958C138.979 9.826 139.189 9.76 139.477 9.76H140.827C141.127 9.76 141.337 9.826 141.457 9.958C141.577 10.078 141.637 10.276 141.637 10.552V21.226C141.637 21.49 141.577 21.688 141.457 21.82C141.337 21.94 141.127 22 140.827 22H139.693C139.501 22 139.351 21.976 139.243 21.928C139.147 21.868 139.039 21.76 138.919 21.604L133.861 14.512V21.226C133.861 21.49 133.801 21.688 133.681 21.82C133.561 21.94 133.351 22 133.051 22H131.701ZM149.687 22.27C147.599 22.27 145.979 21.724 144.827 20.632C143.687 19.528 143.117 17.944 143.117 15.88C143.117 13.804 143.675 12.22 144.791 11.128C145.919 10.036 147.527 9.49 149.615 9.49C150.491 9.49 151.283 9.58 151.991 9.76C152.711 9.928 153.317 10.174 153.809 10.498C153.929 10.582 153.989 10.678 153.989 10.786C153.989 10.882 153.953 10.984 153.881 11.092L153.251 12.19C153.167 12.322 153.083 12.388 152.999 12.388C152.927 12.388 152.825 12.352 152.693 12.28C151.925 11.848 151.019 11.632 149.975 11.632C148.739 11.632 147.779 11.992 147.095 12.712C146.411 13.42 146.069 14.476 146.069 15.88C146.069 17.296 146.423 18.358 147.131 19.066C147.851 19.774 148.829 20.128 150.065 20.128C151.193 20.128 152.141 19.912 152.909 19.48C153.041 19.408 153.143 19.372 153.215 19.372C153.299 19.372 153.383 19.438 153.467 19.57L154.169 20.776C154.217 20.86 154.241 20.932 154.241 20.992C154.241 21.064 154.169 21.154 154.025 21.262C153.089 21.934 151.643 22.27 149.687 22.27ZM156.486 22C156.198 22 155.988 21.94 155.856 21.82C155.736 21.688 155.676 21.49 155.676 21.226V10.552C155.676 10.288 155.736 10.09 155.856 9.958C155.988 9.826 156.198 9.76 156.486 9.76H163.956C164.244 9.76 164.442 9.82 164.55 9.94C164.658 10.048 164.712 10.24 164.712 10.516V11.182C164.712 11.458 164.658 11.656 164.55 11.776C164.442 11.896 164.244 11.956 163.956 11.956H158.646V14.8H162.354C162.642 14.8 162.84 14.86 162.948 14.98C163.056 15.088 163.11 15.28 163.11 15.556V16.186C163.11 16.462 163.056 16.66 162.948 16.78C162.84 16.9 162.642 16.96 162.354 16.96H158.646V19.822H163.938C164.226 19.822 164.424 19.882 164.532 20.002C164.64 20.122 164.694 20.32 164.694 20.596V21.244C164.694 21.52 164.64 21.718 164.532 21.838C164.424 21.946 164.226 22 163.938 22H156.486Z" fill="#364969"/>
<defs>
<filter id="filter0_d_938_1186" x="188.5" y="2.5" width="28" height="28" filterUnits="userSpaceOnUse" color-interpolation-filters="sRGB">
<feFlood flood-opacity="0" result="BackgroundImageFix"/>
<feColorMatrix in="SourceAlpha" type="matrix" values="0 0 0 0 0 0 0 0 0 0 0 0 0 0 0 0 0 0 127 0" result="hardAlpha"/>
<feOffset dx="1.5" dy="1.5"/>
<feGaussianBlur stdDeviation="0.75"/>
<feComposite in2="hardAlpha" operator="out"/>
<feColorMatrix type="matrix" values="0 0 0 0 0 0 0 0 0 0 0 0 0 0 0 0 0 0 0.25 0"/>
<feBlend mode="normal" in2="BackgroundImageFix" result="effect1_dropShadow_938_1186"/>
<feBlend mode="normal" in="SourceGraphic" in2="effect1_dropShadow_938_1186" result="shape"/>
</filter>
<clipPath id="clip0_938_1186">
<rect width="30" height="30" fill="white" transform="matrix(1 -8.74228e-08 -8.74228e-08 -1 186 30)"/>
</clipPath>
</defs>
</svg>
