<svg width="200" height="46" viewBox="0 0 200 46" fill="none" xmlns="http://www.w3.org/2000/svg">
<g clip-path="url(#clip0_938_1185)">
<g filter="url(#filter0_d_938_1185)">
<rect width="200" height="40" fill="#364969"/>
</g>
<path d="M51.728 27C51.44 27 51.23 26.94 51.098 26.82C50.978 26.688 50.918 26.49 50.918 26.226V15.552C50.918 15.288 50.978 15.09 51.098 14.958C51.23 14.826 51.44 14.76 51.728 14.76H59.198C59.486 14.76 59.684 14.82 59.792 14.94C59.9 15.048 59.954 15.24 59.954 15.516V16.182C59.954 16.458 59.9 16.656 59.792 16.776C59.684 16.896 59.486 16.956 59.198 16.956H53.888V19.8H57.596C57.884 19.8 58.082 19.86 58.19 19.98C58.298 20.088 58.352 20.28 58.352 20.556V21.186C58.352 21.462 58.298 21.66 58.19 21.78C58.082 21.9 57.884 21.96 57.596 21.96H53.888V24.822H59.18C59.468 24.822 59.666 24.882 59.774 25.002C59.882 25.122 59.936 25.32 59.936 25.596V26.244C59.936 26.52 59.882 26.718 59.774 26.838C59.666 26.946 59.468 27 59.18 27H51.728ZM62.0639 27C61.7759 27 61.5659 26.94 61.4339 26.82C61.3139 26.688 61.2539 26.49 61.2539 26.226V15.534C61.2539 15.27 61.3139 15.078 61.4339 14.958C61.5659 14.826 61.7819 14.76 62.0819 14.76H63.1979C63.4019 14.76 63.5519 14.79 63.6479 14.85C63.7559 14.898 63.8699 15 63.9899 15.156L69.0299 22.266V15.552C69.0299 15.288 69.0899 15.09 69.2099 14.958C69.3419 14.826 69.5519 14.76 69.8399 14.76H71.1899C71.4899 14.76 71.6999 14.826 71.8199 14.958C71.9399 15.078 71.9999 15.276 71.9999 15.552V26.226C71.9999 26.49 71.9399 26.688 71.8199 26.82C71.6999 26.94 71.4899 27 71.1899 27H70.0559C69.8639 27 69.7139 26.976 69.6059 26.928C69.5099 26.868 69.4019 26.76 69.2819 26.604L64.2239 19.512V26.226C64.2239 26.49 64.1639 26.688 64.0439 26.82C63.9239 26.94 63.7139 27 63.4139 27H62.0639ZM77.6559 27C77.3559 27 77.1399 26.94 77.0079 26.82C76.8879 26.688 76.8279 26.49 76.8279 26.226V16.956H73.8759C73.5879 16.956 73.3899 16.902 73.2819 16.794C73.1739 16.674 73.1199 16.476 73.1199 16.2V15.534C73.1199 15.258 73.1739 15.06 73.2819 14.94C73.3899 14.82 73.5879 14.76 73.8759 14.76H82.7679C83.0559 14.76 83.2539 14.82 83.3619 14.94C83.4819 15.06 83.5419 15.258 83.5419 15.534V16.2C83.5419 16.464 83.4819 16.656 83.3619 16.776C83.2539 16.896 83.0559 16.956 82.7679 16.956H79.8159V26.226C79.8159 26.49 79.7499 26.688 79.6179 26.82C79.4979 26.94 79.2879 27 78.9879 27H77.6559ZM85.4604 27C85.1724 27 84.9624 26.94 84.8304 26.82C84.7104 26.688 84.6504 26.49 84.6504 26.226V15.552C84.6504 15.288 84.7104 15.09 84.8304 14.958C84.9624 14.826 85.1724 14.76 85.4604 14.76H92.9304C93.2184 14.76 93.4164 14.82 93.5244 14.94C93.6324 15.048 93.6864 15.24 93.6864 15.516V16.182C93.6864 16.458 93.6324 16.656 93.5244 16.776C93.4164 16.896 93.2184 16.956 92.9304 16.956H87.6204V19.8H91.3284C91.6164 19.8 91.8144 19.86 91.9224 19.98C92.0304 20.088 92.0844 20.28 92.0844 20.556V21.186C92.0844 21.462 92.0304 21.66 91.9224 21.78C91.8144 21.9 91.6164 21.96 91.3284 21.96H87.6204V24.822H92.9124C93.2004 24.822 93.3984 24.882 93.5064 25.002C93.6144 25.122 93.6684 25.32 93.6684 25.596V26.244C93.6684 26.52 93.6144 26.718 93.5064 26.838C93.3984 26.946 93.2004 27 92.9124 27H85.4604ZM95.7964 27C95.5084 27 95.2984 26.94 95.1664 26.82C95.0464 26.688 94.9864 26.49 94.9864 26.226V15.552C94.9864 15.288 95.0464 15.09 95.1664 14.958C95.2984 14.826 95.5084 14.76 95.7964 14.76H100.35C103.398 14.76 104.922 16.092 104.922 18.756C104.922 19.608 104.742 20.334 104.382 20.934C104.022 21.522 103.488 21.972 102.78 22.284L104.67 26.424C104.706 26.508 104.724 26.592 104.724 26.676C104.724 26.892 104.598 27 104.346 27H102.348C102.18 27 102.054 26.982 101.97 26.946C101.886 26.898 101.814 26.802 101.754 26.658L100.098 22.698H97.9564V26.226C97.9564 26.49 97.8964 26.688 97.7764 26.82C97.6564 26.94 97.4464 27 97.1464 27H95.7964ZM99.9184 20.556C100.602 20.556 101.112 20.412 101.448 20.124C101.796 19.836 101.97 19.38 101.97 18.756C101.97 18.132 101.814 17.676 101.502 17.388C101.19 17.1 100.722 16.956 100.098 16.956H97.9564V20.556H99.9184ZM117.579 27.27C116.643 27.27 115.743 27.174 114.879 26.982C114.027 26.778 113.337 26.496 112.809 26.136C112.629 26.004 112.539 25.884 112.539 25.776C112.539 25.704 112.569 25.62 112.629 25.524L113.367 24.354C113.439 24.234 113.517 24.174 113.601 24.174C113.673 24.174 113.763 24.21 113.871 24.282C114.315 24.534 114.825 24.738 115.401 24.894C115.977 25.05 116.559 25.128 117.147 25.128C117.843 25.128 118.359 25.02 118.695 24.804C119.031 24.576 119.199 24.222 119.199 23.742C119.199 23.418 119.115 23.154 118.947 22.95C118.791 22.746 118.551 22.566 118.227 22.41C117.915 22.254 117.429 22.05 116.769 21.798C116.001 21.51 115.347 21.216 114.807 20.916C114.279 20.616 113.841 20.232 113.493 19.764C113.157 19.284 112.989 18.702 112.989 18.018C112.989 16.878 113.403 16.008 114.231 15.408C115.059 14.796 116.151 14.49 117.507 14.49C119.295 14.49 120.663 14.826 121.611 15.498C121.791 15.642 121.881 15.762 121.881 15.858C121.881 15.93 121.851 16.014 121.791 16.11L121.053 17.28C120.981 17.4 120.903 17.46 120.819 17.46C120.747 17.46 120.657 17.424 120.549 17.352C119.817 16.872 118.929 16.632 117.885 16.632C116.589 16.632 115.941 17.1 115.941 18.036C115.941 18.348 116.013 18.606 116.157 18.81C116.313 19.002 116.523 19.17 116.787 19.314C117.051 19.446 117.465 19.62 118.029 19.836L118.533 20.034C119.409 20.382 120.099 20.712 120.603 21.024C121.107 21.324 121.491 21.696 121.755 22.14C122.031 22.584 122.169 23.154 122.169 23.85C122.169 24.894 121.773 25.728 120.981 26.352C120.201 26.964 119.067 27.27 117.579 27.27ZM124.449 27C124.161 27 123.951 26.94 123.819 26.82C123.699 26.688 123.639 26.49 123.639 26.226V15.552C123.639 15.288 123.699 15.09 123.819 14.958C123.951 14.826 124.161 14.76 124.449 14.76H125.799C126.099 14.76 126.309 14.826 126.429 14.958C126.549 15.078 126.609 15.276 126.609 15.552V26.226C126.609 26.49 126.549 26.688 126.429 26.82C126.309 26.94 126.099 27 125.799 27H124.449ZM132.254 27C131.954 27 131.738 26.94 131.606 26.82C131.486 26.688 131.426 26.49 131.426 26.226V16.956H128.474C128.186 16.956 127.988 16.902 127.88 16.794C127.772 16.674 127.718 16.476 127.718 16.2V15.534C127.718 15.258 127.772 15.06 127.88 14.94C127.988 14.82 128.186 14.76 128.474 14.76H137.366C137.654 14.76 137.852 14.82 137.96 14.94C138.08 15.06 138.14 15.258 138.14 15.534V16.2C138.14 16.464 138.08 16.656 137.96 16.776C137.852 16.896 137.654 16.956 137.366 16.956H134.414V26.226C134.414 26.49 134.348 26.688 134.216 26.82C134.096 26.94 133.886 27 133.586 27H132.254ZM140.058 27C139.77 27 139.56 26.94 139.428 26.82C139.308 26.688 139.248 26.49 139.248 26.226V15.552C139.248 15.288 139.308 15.09 139.428 14.958C139.56 14.826 139.77 14.76 140.058 14.76H147.528C147.816 14.76 148.014 14.82 148.122 14.94C148.23 15.048 148.284 15.24 148.284 15.516V16.182C148.284 16.458 148.23 16.656 148.122 16.776C148.014 16.896 147.816 16.956 147.528 16.956H142.218V19.8H145.926C146.214 19.8 146.412 19.86 146.52 19.98C146.628 20.088 146.682 20.28 146.682 20.556V21.186C146.682 21.462 146.628 21.66 146.52 21.78C146.412 21.9 146.214 21.96 145.926 21.96H142.218V24.822H147.51C147.798 24.822 147.996 24.882 148.104 25.002C148.212 25.122 148.266 25.32 148.266 25.596V26.244C148.266 26.52 148.212 26.718 148.104 26.838C147.996 26.946 147.798 27 147.51 27H140.058Z" fill="white"/>
</g>
<defs>
<filter id="filter0_d_938_1185" x="-4" y="0" width="208" height="48" filterUnits="userSpaceOnUse" color-interpolation-filters="sRGB">
<feFlood flood-opacity="0" result="BackgroundImageFix"/>
<feColorMatrix in="SourceAlpha" type="matrix" values="0 0 0 0 0 0 0 0 0 0 0 0 0 0 0 0 0 0 127 0" result="hardAlpha"/>
<feOffset dy="4"/>
<feGaussianBlur stdDeviation="2"/>
<feComposite in2="hardAlpha" operator="out"/>
<feColorMatrix type="matrix" values="0 0 0 0 0 0 0 0 0 0 0 0 0 0 0 0 0 0 0.25 0"/>
<feBlend mode="normal" in2="BackgroundImageFix" result="effect1_dropShadow_938_1185"/>
<feBlend mode="normal" in="SourceGraphic" in2="effect1_dropShadow_938_1185" result="shape"/>
</filter>
<clipPath id="clip0_938_1185">
<rect width="200" height="46" fill="white"/>
</clipPath>
</defs>
</svg>
