<svg width="24" height="24" viewBox="0 0 24 24" fill="none" xmlns="http://www.w3.org/2000/svg">
<path d="M11.0521 14.439H7.66158C7.46094 14.439 7.29846 14.6014 7.29846 14.8021V20.0662C7.29846 20.2669 7.46094 20.4294 7.66158 20.4294H11.0521C11.2527 20.4294 11.4149 20.2669 11.4149 20.0662V14.8018C11.4149 14.6012 11.2525 14.439 11.0521 14.439ZM16.3385 3.57056H12.9481C12.7474 3.57056 12.5849 3.73304 12.5849 3.93368V20.066C12.5849 20.2666 12.7474 20.4291 12.9481 20.4291H16.3385C16.5392 20.4291 16.7017 20.2666 16.7017 20.066V3.93368C16.7017 3.73304 16.5392 3.57056 16.3385 3.57056V3.57056ZM21.6521 8.4716H18.2617C18.061 8.4716 17.8985 8.63408 17.8985 8.83472V20.066C17.8985 20.2666 18.061 20.4291 18.2617 20.4291H21.6519C21.8525 20.4291 22.015 20.2666 22.015 20.066V8.83472C22.015 8.63432 21.8525 8.4716 21.6521 8.4716V8.4716ZM5.73846 8.4716H2.34798C2.14734 8.4716 1.98486 8.63408 1.98486 8.83472V20.066C1.98486 20.2666 2.14734 20.4291 2.34798 20.4291H5.73846C5.9391 20.4291 6.10158 20.2666 6.10158 20.066V8.83472C6.10158 8.63432 5.9391 8.4716 5.73846 8.4716V8.4716Z" fill="#364969"/>
</svg>
