<svg width="24" height="24" viewBox="0 0 24 24" fill="none" xmlns="http://www.w3.org/2000/svg">
<path d="M9.2548 8.8C9.8596 8.068 10.7752 7.6 11.8 7.6C12.8248 7.6 13.7404 8.068 14.3452 8.8C14.7434 9.28278 14.9961 9.86882 15.0738 10.4898C15.1516 11.1107 15.0512 11.741 14.7843 12.307C14.5174 12.8731 14.0951 13.3516 13.5666 13.6867C13.0381 14.0218 12.4252 14.1997 11.7994 14.1997C11.1736 14.1997 10.5607 14.0218 10.0322 13.6867C9.5037 13.3516 9.08138 12.8731 8.81451 12.307C8.54764 11.741 8.44722 11.1107 8.52497 10.4898C8.60271 9.86882 8.85541 9.28278 9.2536 8.8H9.2548ZM16.3 10.9C16.3 10.1416 16.1128 9.4264 15.7816 8.8H20.8C21.2774 8.8 21.7352 8.98964 22.0728 9.32721C22.4104 9.66477 22.6 10.1226 22.6 10.6V11.2C22.6 13.1044 21.1528 15.0544 18.622 15.7408C18.3619 15.2736 17.9817 14.8844 17.5207 14.6135C17.0597 14.3426 16.5347 14.1999 16 14.2H14.86C15.3148 13.7792 15.6776 13.2687 15.9254 12.7007C16.1733 12.1328 16.3008 11.5197 16.3 10.9ZM16 15.4C16.2366 15.3994 16.4709 15.4455 16.6896 15.5357C16.9083 15.626 17.1069 15.7585 17.2742 15.9258C17.4415 16.0931 17.574 16.2917 17.6643 16.5104C17.7545 16.7291 17.8006 16.9634 17.8 17.2V17.8C17.8 20.1652 15.568 22.6 11.8 22.6C8.032 22.6 5.8 20.1652 5.8 17.8V17.2C5.79937 16.9634 5.84549 16.7291 5.93573 16.5104C6.02596 16.2917 6.15852 16.0931 6.3258 15.9258C6.49307 15.7585 6.69175 15.626 6.91042 15.5357C7.12909 15.4455 7.36344 15.3994 7.6 15.4H16ZM1 11.2C1 13.1044 2.4472 15.0544 4.978 15.7408C5.23808 15.2736 5.61829 14.8844 6.07929 14.6135C6.54028 14.3426 7.0653 14.1999 7.6 14.2H8.74C8.28516 13.7792 7.9224 13.2687 7.67457 12.7007C7.42674 12.1328 7.2992 11.5197 7.3 10.9C7.3 10.1416 7.4872 9.4264 7.8196 8.8H2.8C2.32261 8.8 1.86477 8.98964 1.52721 9.32721C1.18964 9.66477 1 10.1226 1 10.6V11.2ZM10.3 4.3C10.3 3.42479 9.95232 2.58542 9.33345 1.96655C8.71458 1.34768 7.87521 1 7 1C6.12479 1 5.28542 1.34768 4.66655 1.96655C4.04768 2.58542 3.7 3.42479 3.7 4.3C3.7 5.17521 4.04768 6.01458 4.66655 6.63345C5.28542 7.25232 6.12479 7.6 7 7.6C7.87521 7.6 8.71458 7.25232 9.33345 6.63345C9.95232 6.01458 10.3 5.17521 10.3 4.3V4.3ZM19.9 4.3C19.9 3.42479 19.5523 2.58542 18.9335 1.96655C18.3146 1.34768 17.4752 1 16.6 1C15.7248 1 14.8854 1.34768 14.2665 1.96655C13.6477 2.58542 13.3 3.42479 13.3 4.3C13.3 5.17521 13.6477 6.01458 14.2665 6.63345C14.8854 7.25232 15.7248 7.6 16.6 7.6C17.4752 7.6 18.3146 7.25232 18.9335 6.63345C19.5523 6.01458 19.9 5.17521 19.9 4.3V4.3Z" fill="#364969"/>
</svg>
