<svg width="48" height="48" viewBox="0 0 48 48" fill="none" xmlns="http://www.w3.org/2000/svg">
<path d="M44 17.216V33.5C44.0001 35.1603 43.3649 36.7577 42.2247 37.9645C41.0844 39.1713 39.5256 39.896 37.868 39.99L37.5 40H10.5C8.83972 40.0001 7.24234 39.3649 6.03554 38.2247C4.82873 37.0844 4.104 35.5256 4.01 33.868L4 33.5V17.216L23.304 27.328C23.5188 27.4405 23.7576 27.4992 24 27.4992C24.2424 27.4992 24.4812 27.4405 24.696 27.328L44 17.216ZM10.5 8H37.5C39.1112 7.99981 40.665 8.59799 41.8601 9.67853C43.0552 10.7591 43.8064 12.245 43.968 13.848L24 24.308L4.032 13.848C4.18705 12.3086 4.8861 10.875 6.0035 9.80493C7.1209 8.73482 8.58336 8.09837 10.128 8.01L10.5 8H37.5H10.5Z" fill="#364969"/>
</svg>
