<svg width="60" height="60" viewBox="0 0 60 60" fill="none" xmlns="http://www.w3.org/2000/svg">
<g clip-path="url(#clip0_456_265)">
<g filter="url(#filter0_d_456_265)">
<path d="M55 30C55 25.0555 53.5338 20.222 50.7867 16.1107C48.0397 11.9995 44.1352 8.79518 39.5671 6.90299C34.9989 5.0108 29.9723 4.51572 25.1227 5.48035C20.2732 6.44498 15.8186 8.826 12.3223 12.3223C8.82602 15.8186 6.44499 20.2732 5.48036 25.1227C4.51573 29.9722 5.01082 34.9989 6.90301 39.5671C8.7952 44.1352 11.9995 48.0397 16.1107 50.7867C20.222 53.5338 25.0555 55 30 55C33.283 55 36.5339 54.3533 39.5671 53.097C42.6002 51.8406 45.3562 49.9991 47.6777 47.6777C49.9991 45.3562 51.8406 42.6002 53.097 39.5671C54.3534 36.5339 55 33.283 55 30V30ZM25.35 39.225L18.2 31.725C18.0942 31.6165 18.0094 31.4894 17.95 31.35C17.8438 31.2324 17.7592 31.097 17.7 30.95C17.5677 30.6507 17.4994 30.3272 17.4994 30C17.4994 29.6728 17.5677 29.3492 17.7 29.05C17.819 28.7431 17.9974 28.4627 18.225 28.225L25.725 20.725C26.1958 20.2542 26.8342 19.9897 27.5 19.9897C28.1658 19.9897 28.8042 20.2542 29.275 20.725C29.7458 21.1957 30.0102 21.8342 30.0102 22.5C30.0102 23.1657 29.7458 23.8042 29.275 24.275L26.025 27.5L40 27.5C40.663 27.5 41.2989 27.7634 41.7678 28.2322C42.2366 28.7011 42.5 29.3369 42.5 30C42.5 30.663 42.2366 31.2989 41.7678 31.7677C41.2989 32.2366 40.663 32.5 40 32.5L25.85 32.5L28.975 35.775C29.4325 36.2557 29.6803 36.8984 29.6639 37.5619C29.6475 38.2253 29.3682 38.855 28.8875 39.3125C28.4068 39.77 27.764 40.0178 27.1006 40.0014C26.4372 39.985 25.8075 39.7057 25.35 39.225V39.225Z" fill="#364969"/>
</g>
</g>
<defs>
<filter id="filter0_d_456_265" x="5" y="4.99997" width="54" height="54" filterUnits="userSpaceOnUse" color-interpolation-filters="sRGB">
<feFlood flood-opacity="0" result="BackgroundImageFix"/>
<feColorMatrix in="SourceAlpha" type="matrix" values="0 0 0 0 0 0 0 0 0 0 0 0 0 0 0 0 0 0 127 0" result="hardAlpha"/>
<feOffset dx="2" dy="2"/>
<feGaussianBlur stdDeviation="1"/>
<feComposite in2="hardAlpha" operator="out"/>
<feColorMatrix type="matrix" values="0 0 0 0 0 0 0 0 0 0 0 0 0 0 0 0 0 0 0.25 0"/>
<feBlend mode="normal" in2="BackgroundImageFix" result="effect1_dropShadow_456_265"/>
<feBlend mode="normal" in="SourceGraphic" in2="effect1_dropShadow_456_265" result="shape"/>
</filter>
<clipPath id="clip0_456_265">
<rect width="60" height="60" fill="white"/>
</clipPath>
</defs>
</svg>
