<svg width="42" height="42" viewBox="0 0 42 42" fill="none" xmlns="http://www.w3.org/2000/svg">
<g clip-path="url(#clip0_456_236)">
<g clip-path="url(#clip1_456_236)">
<g filter="url(#filter0_d_456_236)">
<path d="M3.33331 20C3.33331 23.2964 4.3108 26.5187 6.14215 29.2595C7.97351 32.0003 10.5765 34.1365 13.6219 35.398C16.6674 36.6595 20.0185 36.9895 23.2515 36.3464C26.4845 35.7033 29.4542 34.116 31.7851 31.7851C34.116 29.4542 35.7033 26.4845 36.3464 23.2515C36.9895 20.0185 36.6594 16.6674 35.398 13.622C34.1365 10.5765 32.0003 7.97354 29.2595 6.14218C26.5187 4.31083 23.2963 3.33334 20 3.33334C17.8113 3.33334 15.644 3.76444 13.6219 4.60202C11.5998 5.43959 9.76251 6.66725 8.21487 8.2149C6.66722 9.76254 5.43957 11.5999 4.60199 13.622C3.76441 15.644 3.33331 17.8113 3.33331 20V20ZM23.1 13.85L27.8666 18.85C27.9372 18.9223 27.9937 19.0071 28.0333 19.1C28.1041 19.1784 28.1605 19.2687 28.2 19.3667C28.2882 19.5662 28.3337 19.7819 28.3337 20C28.3337 20.2181 28.2882 20.4338 28.2 20.6333C28.1207 20.8379 28.0017 21.0248 27.85 21.1833L22.85 26.1833C22.5361 26.4972 22.1105 26.6735 21.6666 26.6735C21.2228 26.6735 20.7972 26.4972 20.4833 26.1833C20.1695 25.8695 19.9932 25.4438 19.9932 25C19.9932 24.5562 20.1695 24.1305 20.4833 23.8167L22.65 21.6667H13.3333C12.8913 21.6667 12.4674 21.4911 12.1548 21.1785C11.8422 20.866 11.6666 20.442 11.6666 20C11.6666 19.558 11.8422 19.1341 12.1548 18.8215C12.4674 18.5089 12.8913 18.3333 13.3333 18.3333H22.7666L20.6833 16.15C20.3783 15.8295 20.2131 15.401 20.2241 14.9588C20.235 14.5165 20.4212 14.0967 20.7416 13.7917C21.0621 13.4867 21.4906 13.3215 21.9329 13.3324C22.3752 13.3434 22.795 13.5295 23.1 13.85V13.85Z" fill="white"/>
</g>
</g>
</g>
<defs>
<filter id="filter0_d_456_236" x="3.33331" y="3.33334" width="37.3334" height="37.3333" filterUnits="userSpaceOnUse" color-interpolation-filters="sRGB">
<feFlood flood-opacity="0" result="BackgroundImageFix"/>
<feColorMatrix in="SourceAlpha" type="matrix" values="0 0 0 0 0 0 0 0 0 0 0 0 0 0 0 0 0 0 127 0" result="hardAlpha"/>
<feOffset dx="2" dy="2"/>
<feGaussianBlur stdDeviation="1"/>
<feComposite in2="hardAlpha" operator="out"/>
<feColorMatrix type="matrix" values="0 0 0 0 0 0 0 0 0 0 0 0 0 0 0 0 0 0 0.25 0"/>
<feBlend mode="normal" in2="BackgroundImageFix" result="effect1_dropShadow_456_236"/>
<feBlend mode="normal" in="SourceGraphic" in2="effect1_dropShadow_456_236" result="shape"/>
</filter>
<clipPath id="clip0_456_236">
<rect width="42" height="42" fill="white"/>
</clipPath>
<clipPath id="clip1_456_236">
<rect width="40" height="40" fill="white"/>
</clipPath>
</defs>
</svg>
