<svg width="42" height="42" viewBox="0 0 42 42" fill="none" xmlns="http://www.w3.org/2000/svg">
<g clip-path="url(#clip0_442_222)">
<g clip-path="url(#clip1_442_222)">
<path d="M9.5917 3.48598C9.43674 3.28664 9.24114 3.12255 9.01789 3.00462C8.79463 2.88669 8.54884 2.81761 8.29684 2.80196C8.04484 2.78632 7.79239 2.82448 7.55627 2.9139C7.32015 3.00332 7.10575 3.14196 6.92733 3.32061L4.21308 6.03748C2.9452 7.30798 2.47795 9.10611 3.03183 10.6837C5.33065 17.2136 9.0701 23.1422 13.9728 28.0297C18.8604 32.9324 24.7889 36.6718 31.3188 38.9707C32.8965 39.5246 34.6946 39.0574 35.9651 37.7895L38.6793 35.0752C38.858 34.8968 38.9966 34.6824 39.086 34.4463C39.1755 34.2102 39.2136 33.9577 39.198 33.7057C39.1823 33.4537 39.1132 33.2079 38.9953 32.9847C38.8774 32.7614 38.7133 32.5658 38.514 32.4109L32.4581 27.7016C32.2451 27.5364 31.9974 27.4218 31.7337 27.3663C31.4699 27.3108 31.197 27.316 30.9356 27.3814L25.1868 28.8172C24.4195 29.009 23.6156 28.9988 22.8533 28.7877C22.0911 28.5765 21.3965 28.1716 20.8372 27.6124L14.3902 21.1627C13.8305 20.6037 13.4251 19.9092 13.2135 19.147C13.0018 18.3847 12.9912 17.5807 13.1827 16.8131L14.6212 11.0644C14.6866 10.8029 14.6917 10.53 14.6363 10.2663C14.5808 10.0025 14.4661 9.75482 14.301 9.54185L9.5917 3.48598ZM4.94545 1.34136C5.40482 0.881848 5.95668 0.525323 6.56439 0.295454C7.17211 0.0655851 7.82178 -0.0323676 8.47025 0.00810014C9.11873 0.0485679 9.75118 0.22653 10.3256 0.53017C10.9 0.833809 11.4033 1.25618 11.802 1.76923L16.5112 7.82248C17.3748 8.93286 17.6793 10.3792 17.3381 11.7442L15.9022 17.493C15.828 17.7907 15.832 18.1026 15.9138 18.3984C15.9957 18.6941 16.1527 18.9637 16.3695 19.1809L22.8191 25.6305C23.0365 25.8477 23.3065 26.0049 23.6028 26.0868C23.899 26.1687 24.2114 26.1724 24.5096 26.0977L30.2557 24.6619C30.9293 24.4934 31.6324 24.4803 32.3118 24.6236C32.9912 24.7668 33.6292 25.0627 34.1775 25.4887L40.2307 30.198C42.4068 31.8911 42.6063 35.1067 40.6586 37.0518L37.9443 39.7661C36.0018 41.7086 33.0986 42.5617 30.3922 41.6089C23.4653 39.1716 17.176 35.206 11.991 30.0064C6.79159 24.822 2.82605 18.5337 0.388454 11.6077C-0.561796 8.90398 0.291329 5.99811 2.23383 4.05561L4.94808 1.34136H4.94545Z" fill="#364969"/>
<path d="M9.5917 3.48598C9.43674 3.28664 9.24114 3.12255 9.01789 3.00462C8.79463 2.88669 8.54884 2.81761 8.29684 2.80196C8.04484 2.78632 7.79239 2.82448 7.55627 2.9139C7.32015 3.00332 7.10575 3.14196 6.92733 3.32061L4.21308 6.03748C2.9452 7.30798 2.47795 9.10611 3.03183 10.6837C5.33065 17.2136 9.0701 23.1422 13.9728 28.0297C18.8604 32.9324 24.7889 36.6718 31.3188 38.9707C32.8965 39.5246 34.6946 39.0574 35.9651 37.7895L38.6793 35.0752C38.858 34.8968 38.9966 34.6824 39.086 34.4463C39.1755 34.2102 39.2136 33.9577 39.198 33.7057C39.1823 33.4537 39.1132 33.2079 38.9953 32.9847C38.8774 32.7614 38.7133 32.5658 38.514 32.4109L32.4581 27.7016C32.2451 27.5364 31.9974 27.4218 31.7337 27.3663C31.4699 27.3108 31.197 27.316 30.9356 27.3814L25.1868 28.8172C24.4195 29.009 23.6156 28.9988 22.8533 28.7877C22.0911 28.5765 21.3965 28.1716 20.8372 27.6124L14.3902 21.1627C13.8305 20.6037 13.4251 19.9092 13.2135 19.147C13.0018 18.3847 12.9912 17.5807 13.1827 16.8131L14.6212 11.0644C14.6866 10.8029 14.6917 10.53 14.6363 10.2663C14.5808 10.0025 14.4661 9.75482 14.301 9.54185L9.5917 3.48598Z" fill="#364969"/>
</g>
</g>
<defs>
<clipPath id="clip0_442_222">
<rect width="42" height="42" fill="white"/>
</clipPath>
<clipPath id="clip1_442_222">
<rect width="42" height="42" fill="white"/>
</clipPath>
</defs>
</svg>
